<?xml version="1.0" encoding="iso-8859-1"?>
<!-- Generator: Adobe Illustrator 19.0.0, SVG Export Plug-In . SVG Version: 6.00 Build 0)  -->
<svg version="1.1" id="Layer_1" xmlns="http://www.w3.org/2000/svg" xmlns:xlink="http://www.w3.org/1999/xlink" x="0px" y="0px"
	 viewBox="0 0 512 512" style="enable-background:new 0 0 512 512;" xml:space="preserve">
<polygon style="fill:#4D2564;" points="126.593,50.686 126.593,95.696 351.647,202.841 385.405,196.971 385.405,50.686 "/>
<polygon style="fill:#9E52B6;" points="126.593,95.696 126.593,196.971 255.999,219.476 351.647,202.841 351.647,95.696 "/>
<polygon style="fill:#4D2564;" points="478.24,22.554 455.734,42.246 478.24,61.938 511.998,61.938 511.998,22.554 "/>
<g>
	<rect y="22.55" style="fill:#763C8D;" width="478.24" height="39.384"/>
	<circle style="fill:#763C8D;" cx="202.549" cy="121.012" r="8.44"/>
	<circle style="fill:#763C8D;" cx="168.79" cy="154.77" r="8.44"/>
</g>
<path style="fill:#F89890;" d="M13.588,286.992v33.758c0,0,291.284,0,309.927,0c18.645,0,33.758-15.113,33.758-33.758
	L185.43,275.739L13.588,286.992z"/>
<path style="fill:#FFC5BF;" d="M323.515,253.234c-18.645,0-309.927,0-309.927,0v33.758h343.686
	C357.273,268.348,342.16,253.234,323.515,253.234z"/>
<path style="fill:#F16C60;" d="M478.24,11.301c-4.662,0-8.44,3.779-8.44,8.44v199.735c0,32.575-26.502,59.077-59.077,59.077h-36.571
	v16.879h36.571c41.883,0,75.956-34.073,75.956-75.956V19.741C486.679,15.08,482.902,11.301,478.24,11.301z"/>
<circle style="fill:#F89890;" cx="374.152" cy="286.989" r="16.879"/>
<polygon style="fill:#4D2564;" points="101.206,433.23 67.471,466.964 0.001,433.23 "/>
<polygon style="fill:#763C8D;" points="67.471,399.496 101.206,424.796 67.471,450.098 0.001,433.23 "/>
<polygon style="fill:#FFC5BF;" points="168.675,450.098 134.94,500.699 67.471,466.964 67.471,450.098 "/>
<polygon style="fill:#FFD8D4;" points="134.94,365.761 206.279,433.23 134.94,466.964 67.471,450.098 67.471,399.496 "/>
<polygon style="fill:#8A9D29;" points="422.057,444.475 388.323,500.699 134.94,500.699 134.94,466.964 "/>
<path style="fill:#D6BAED;" d="M410.812,433.23l22.49,67.469h44.964c18.553,0,33.734-15.181,33.734-33.734V433.23H410.812z"/>
<polygon style="fill:#C4CE94;" points="134.94,365.761 134.94,433.23 168.676,453.471 422.057,453.471 388.323,365.761 "/>
<rect x="134.942" y="433.229" style="fill:#A7B65F;" width="264.607" height="33.734"/>
<path style="fill:#E4D1F3;" d="M512,399.496v33.734c0,18.555-15.181,33.734-33.734,33.734h-67.453l22.49-101.203h44.964
	C496.82,365.761,512,380.941,512,399.496z"/>
<rect x="388.319" y="466.964" style="fill:#4D2564;" width="44.979" height="33.734"/>
<rect x="388.319" y="365.758" style="fill:#763C8D;" width="44.979" height="101.207"/>
<g>
</g>
<g>
</g>
<g>
</g>
<g>
</g>
<g>
</g>
<g>
</g>
<g>
</g>
<g>
</g>
<g>
</g>
<g>
</g>
<g>
</g>
<g>
</g>
<g>
</g>
<g>
</g>
<g>
</g>
</svg>
