<?xml version="1.0" encoding="iso-8859-1"?>
<!-- Generator: Adobe Illustrator 19.0.0, SVG Export Plug-In . SVG Version: 6.00 Build 0)  -->
<svg version="1.1" id="Layer_1" xmlns="http://www.w3.org/2000/svg" xmlns:xlink="http://www.w3.org/1999/xlink" x="0px" y="0px"
	 viewBox="0 0 511.99 511.99" style="enable-background:new 0 0 511.99 511.99;" xml:space="preserve">
<path style="fill:#48CFAD;" d="M479.991,42.659H31.999c-5.891,0-10.664,4.781-10.664,10.672v277.316
	c0,5.906,4.773,10.688,10.664,10.688h447.992c5.891,0,10.656-4.781,10.656-10.688V53.331
	C490.647,47.44,485.882,42.659,479.991,42.659z"/>
<path style="fill:#434A54;" d="M501.335,341.335H10.664C4.773,341.335,0,336.554,0,330.647c0-5.875,4.773-10.656,10.664-10.656
	h490.671c5.875,0,10.655,4.781,10.655,10.656C511.99,336.554,507.21,341.335,501.335,341.335z"/>
<g>
	<path style="fill:#F5F7FA;" d="M170.661,277.335c-22.789,0-44.218-8.883-60.335-25.007c-16.117-16.109-24.991-37.539-24.991-60.335
		s8.874-44.226,24.991-60.343s37.546-24.992,60.335-24.992c22.797,0,44.226,8.875,60.343,25
		c16.116,16.108,24.991,37.538,24.991,60.335c0,22.796-8.875,44.218-24.991,60.335C214.887,268.452,193.458,277.335,170.661,277.335
		z M170.661,127.994c-17.094,0-33.164,6.656-45.249,18.742c-12.094,12.094-18.75,28.164-18.75,45.257s6.656,33.163,18.75,45.257
		c12.085,12.086,28.155,18.742,45.249,18.742s33.171-6.656,45.257-18.742c12.086-12.094,18.742-28.164,18.742-45.257
		s-6.656-33.164-18.742-45.257C203.832,134.649,187.755,127.994,170.661,127.994z"/>
	<path style="fill:#F5F7FA;" d="M253.628,109.025c-4.164-4.164-10.921-4.164-15.085,0s-4.164,10.921,0,15.085
		c4.172,4.164,10.921,4.164,15.085,0S257.792,113.189,253.628,109.025z"/>
	<path style="fill:#F5F7FA;" d="M223.457,139.196c-4.164-4.164-10.914-4.164-15.078,0c-4.172,4.164-4.172,10.922,0,15.086
		c4.164,4.164,10.914,4.164,15.078,0C227.629,150.118,227.629,143.36,223.457,139.196z"/>
	<path style="fill:#F5F7FA;" d="M193.294,169.368c-4.172-4.164-10.922-4.164-15.086,0s-4.164,10.914,0,15.086
		c4.164,4.164,10.922,4.164,15.086,0C197.458,180.282,197.458,173.532,193.294,169.368z"/>
	<path style="fill:#F5F7FA;" d="M163.122,199.532c-4.164-4.164-10.922-4.164-15.086,0c-4.164,4.171-4.164,10.921,0,15.085
		c4.164,4.172,10.922,4.172,15.086,0C167.286,210.453,167.286,203.703,163.122,199.532z"/>
	<path style="fill:#F5F7FA;" d="M132.95,229.703c-4.163-4.164-10.921-4.164-15.085,0s-4.164,10.922,0,15.086
		c4.172,4.164,10.922,4.164,15.085,0C137.114,240.624,137.114,233.874,132.95,229.703z"/>
	<path style="fill:#F5F7FA;" d="M102.779,259.874c-4.164-4.164-10.914-4.164-15.077,0c-4.172,4.164-4.172,10.922,0,15.086
		c4.163,4.156,10.913,4.156,15.077,0C106.951,270.796,106.951,264.038,102.779,259.874z"/>
	<path style="fill:#F5F7FA;" d="M416.18,170.657H309.526c-5.906,0-10.672-4.773-10.672-10.664s4.766-10.664,10.672-10.664h106.653
		c5.891,0,10.672,4.773,10.672,10.664S422.07,170.657,416.18,170.657z"/>
	<path style="fill:#F5F7FA;" d="M415.992,213.328H309.339c-5.906,0-10.688-4.781-10.688-10.671s4.781-10.664,10.688-10.664h106.653
		c5.891,0,10.656,4.773,10.656,10.664C426.648,208.547,421.883,213.328,415.992,213.328z"/>
	<path style="fill:#F5F7FA;" d="M362.852,255.992h-53.717c-5.891,0-10.672-4.773-10.672-10.664s4.781-10.672,10.672-10.672h53.717
		c5.891,0,10.672,4.781,10.672,10.672S368.743,255.992,362.852,255.992z"/>
</g>
<path style="fill:#5D9CEC;" d="M95.998,355.333c-41.171,0-74.663,33.484-74.663,74.656v28.654c0,5.906,4.773,10.688,10.664,10.688
	h127.998c5.891,0,10.664-4.781,10.664-10.688v-28.654C170.661,388.817,137.169,355.333,95.998,355.333z"/>
<path style="fill:#ED5564;" d="M255.995,355.333c-41.171,0-74.662,33.484-74.662,74.656v28.654c0,5.906,4.773,10.688,10.664,10.688
	h127.998c5.89,0,10.655-4.781,10.655-10.688v-28.654C330.65,388.817,297.167,355.333,255.995,355.333z"/>
<path style="fill:#A0D468;" d="M415.992,355.333c-41.171,0-74.654,33.484-74.654,74.656v28.654c0,5.906,4.766,10.688,10.656,10.688
	h127.997c5.891,0,10.656-4.781,10.656-10.688v-28.654C490.647,388.817,457.164,355.333,415.992,355.333z"/>
<g>
	<path style="fill:#EAC6BB;" d="M95.24,298.647c-29.405,0-53.335,23.938-53.335,53.342c0,29.406,23.93,53.344,53.335,53.344
		c29.406,0,53.335-23.938,53.335-53.344C148.575,322.585,124.646,298.647,95.24,298.647z"/>
	<path style="fill:#EAC6BB;" d="M255.237,298.647c-29.405,0-53.335,23.938-53.335,53.342c0,29.406,23.93,53.344,53.335,53.344
		c29.414,0,53.336-23.938,53.336-53.344C308.573,322.585,284.651,298.647,255.237,298.647z"/>
	<path style="fill:#EAC6BB;" d="M415.242,298.647c-29.406,0-53.343,23.938-53.343,53.342c0,29.406,23.937,53.344,53.343,53.344
		s53.328-23.938,53.328-53.344C468.57,322.585,444.648,298.647,415.242,298.647z"/>
</g>
<g>
</g>
<g>
</g>
<g>
</g>
<g>
</g>
<g>
</g>
<g>
</g>
<g>
</g>
<g>
</g>
<g>
</g>
<g>
</g>
<g>
</g>
<g>
</g>
<g>
</g>
<g>
</g>
<g>
</g>
</svg>
