<svg id="Strait_Jacket" xmlns="http://www.w3.org/2000/svg" width="32" height="28.981" viewBox="0 0 32 28.981">
  <g id="Group_1570" data-name="Group 1570" transform="translate(0 0)">
    <g id="Group_1568" data-name="Group 1568" transform="translate(0 0)">
      <path id="Path_1227" data-name="Path 1227" d="M29.84,6.6,22.8,4.993a.535.535,0,0,0-.64.536v.966a2.648,2.648,0,0,1-2.667,2.682H16.72a2.648,2.648,0,0,1-2.667-2.682V5.529a.564.564,0,0,0-.64-.536L6.16,6.6A5.4,5.4,0,0,0,2,11.859v1.609H8.4V32.619A1.324,1.324,0,0,0,9.733,33.96H26.267A1.324,1.324,0,0,0,27.6,32.619V13.469H34V11.859A5.339,5.339,0,0,0,29.84,6.6Z" transform="translate(-2 -4.979)" fill="#81d4fa"/>
      <path id="Path_1228" data-name="Path 1228" d="M22.851,20.967l-7.771,1.619V18.7H14V31.544a5.317,5.317,0,0,0,.917-.108l9.714-2A4.435,4.435,0,0,0,27.384,27.6a4.052,4.052,0,0,0,.594-3.238A4.377,4.377,0,0,0,22.851,20.967Z" transform="translate(-7.659 -11.372)" fill="#4fc3f7"/>
      <g id="Group_1566" data-name="Group 1566" transform="translate(0 8.406)">
        <path id="Path_1229" data-name="Path 1229" d="M7.936,31.439A5.955,5.955,0,0,1,4.213,30.09,5.885,5.885,0,0,1,2,25.5V20.7H8.476v4.1l9.066-1.889a3.255,3.255,0,0,1,1.349,6.368l-9.714,2A5.231,5.231,0,0,1,7.936,31.439Z" transform="translate(-2 -20.7)" fill="#81d4fa"/>
      </g>
      <path id="Path_1230" data-name="Path 1230" d="M29.13,20.967,36.9,22.586V18.7H37.98V31.544a5.317,5.317,0,0,1-.917-.108l-9.714-2A4.435,4.435,0,0,1,24.6,27.6,4.052,4.052,0,0,1,24,24.367,4.377,4.377,0,0,1,29.13,20.967Z" transform="translate(-12.322 -11.372)" fill="#4fc3f7"/>
      <g id="Group_1567" data-name="Group 1567" transform="translate(12.553 8.406)">
        <path id="Path_1231" data-name="Path 1231" d="M39.476,31.439A5.955,5.955,0,0,0,43.2,30.09,5.885,5.885,0,0,0,45.412,25.5V20.7H38.936v4.1L29.87,22.913a3.255,3.255,0,0,0-1.349,6.368l9.714,2A5.231,5.231,0,0,0,39.476,31.439Z" transform="translate(-25.965 -20.7)" fill="#81d4fa"/>
      </g>
      <path id="Path_1232" data-name="Path 1232" d="M47.617,6.607,40.494,4.988A.642.642,0,0,0,39.9,5.2l6.1,1.4A5.378,5.378,0,0,1,50.208,11.9v1.619h1.619V11.9A5.378,5.378,0,0,0,47.617,6.607Z" transform="translate(-19.827 -4.974)" fill="#4fc3f7"/>
      <path id="Path_1233" data-name="Path 1233" d="M54.627,20.8v4.8a5.885,5.885,0,0,1-2.213,4.587,6.169,6.169,0,0,1-2.914,1.3,4.085,4.085,0,0,0,.81.054,5.955,5.955,0,0,0,3.724-1.349A5.885,5.885,0,0,0,56.246,25.6V20.8Z" transform="translate(-24.246 -12.34)" fill="#4fc3f7"/>
      <path id="Path_1234" data-name="Path 1234" d="M6.209,6.607l7.124-1.619a.642.642,0,0,1,.594.216l-6.1,1.4A5.378,5.378,0,0,0,3.619,11.9v1.619H2V11.9A5.378,5.378,0,0,1,6.209,6.607Z" transform="translate(-2 -4.974)" fill="#b3e5fc"/>
      <path id="Path_1235" data-name="Path 1235" d="M3.619,20.754v4.8a5.885,5.885,0,0,0,2.213,4.587,6.169,6.169,0,0,0,2.914,1.3,4.085,4.085,0,0,1-.81.054,5.955,5.955,0,0,1-3.724-1.349A6.074,6.074,0,0,1,2,25.5V20.7H3.619Z" transform="translate(-2 -12.294)" fill="#b3e5fc"/>
    </g>
    <g id="Group_1569" data-name="Group 1569" transform="translate(13.408 6.569)">
      <path id="Path_1236" data-name="Path 1236" d="M31.9,32.411H29.74a.51.51,0,0,1-.54-.54V17.84a.51.51,0,0,1,.54-.54H31.9a.51.51,0,0,1,.54.54V31.871A.541.541,0,0,1,31.9,32.411Z" transform="translate(-28.121 -17.3)" fill="#1976d2"/>
      <path id="Path_1237" data-name="Path 1237" d="M27.2,21.379v-.54a.51.51,0,0,1,.54-.54h4.317a.51.51,0,0,1,.54.54v.54a.51.51,0,0,1-.54.54H27.74A.58.58,0,0,1,27.2,21.379Z" transform="translate(-27.2 -18.681)" fill="#1565c0"/>
      <path id="Path_1238" data-name="Path 1238" d="M27.2,40.179v-.54a.51.51,0,0,1,.54-.54h4.317a.51.51,0,0,1,.54.54v.54a.51.51,0,0,1-.54.54H27.74A.541.541,0,0,1,27.2,40.179Z" transform="translate(-27.2 -27.335)" fill="#1565c0"/>
    </g>
  </g>
</svg>
