<?xml version="1.0" encoding="iso-8859-1"?>
<!-- Generator: Adobe Illustrator 19.0.0, SVG Export Plug-In . SVG Version: 6.00 Build 0)  -->
<svg version="1.1" id="Layer_1" xmlns="http://www.w3.org/2000/svg" xmlns:xlink="http://www.w3.org/1999/xlink" x="0px" y="0px"
	 viewBox="0 0 512 512" style="enable-background:new 0 0 512 512;" xml:space="preserve">
<polygon style="fill:#847C7C;" points="71.432,398.694 71.432,113.306 413.683,113.306 413.683,54.259 10.199,54.259 
	10.199,457.741 413.683,457.741 413.683,398.694 "/>
<polygon style="fill:#FF757C;" points="501.801,256 410.216,164.415 410.216,219.539 169.843,219.539 169.843,292.461 
	410.216,292.461 410.216,347.585 "/>
<g>
	<path style="fill:#4D4D4D;" d="M413.683,467.94H10.199C4.566,467.94,0,463.374,0,457.741V54.259
		c0-5.633,4.566-10.199,10.199-10.199h403.484c5.632,0,10.199,4.566,10.199,10.199v59.048c0,5.633-4.567,10.199-10.199,10.199
		H81.631v264.989h332.05c5.632,0,10.199,4.566,10.199,10.199v59.048C423.882,463.374,419.315,467.94,413.683,467.94z
		 M20.398,447.542h383.085v-38.65H71.432c-5.633,0-10.199-4.566-10.199-10.199V113.306c0-5.633,4.566-10.199,10.199-10.199h332.05
		V64.458H20.398V447.542z"/>
	<path style="fill:#4D4D4D;" d="M410.214,357.785c-1.314,0-2.64-0.254-3.901-0.777c-3.81-1.579-6.296-5.297-6.296-9.423V302.66
		H169.843c-5.633,0-10.199-4.566-10.199-10.199v-72.922c0-5.633,4.566-10.199,10.199-10.199h230.174v-44.924
		c0-4.125,2.486-7.844,6.296-9.423c3.81-1.578,8.198-0.706,11.115,2.211l91.585,91.584c3.983,3.983,3.983,10.441,0,14.425
		l-91.585,91.584C415.477,356.748,412.869,357.785,410.214,357.785z M180.042,282.262h230.174c5.632,0,10.199,4.566,10.199,10.199
		v30.501L487.376,256l-66.961-66.962v30.501c0,5.633-4.567,10.199-10.199,10.199H180.042V282.262z"/>
	<path style="fill:#4D4D4D;" d="M269.259,273.339h-68.335c-5.633,0-10.199-4.566-10.199-10.199s4.566-10.199,10.199-10.199h68.335
		c5.632,0,10.199,4.566,10.199,10.199S274.891,273.339,269.259,273.339z"/>
	<path style="fill:#4D4D4D;" d="M308.016,273.339h-5.1c-5.632,0-10.199-4.566-10.199-10.199s4.567-10.199,10.199-10.199h5.1
		c5.632,0,10.199,4.566,10.199,10.199S313.648,273.339,308.016,273.339z"/>
</g>
<g>
</g>
<g>
</g>
<g>
</g>
<g>
</g>
<g>
</g>
<g>
</g>
<g>
</g>
<g>
</g>
<g>
</g>
<g>
</g>
<g>
</g>
<g>
</g>
<g>
</g>
<g>
</g>
<g>
</g>
</svg>
