<?xml version="1.0" encoding="iso-8859-1"?>
<!-- Generator: Adobe Illustrator 19.0.0, SVG Export Plug-In . SVG Version: 6.00 Build 0)  -->
<svg version="1.1" id="Layer_1" xmlns="http://www.w3.org/2000/svg" xmlns:xlink="http://www.w3.org/1999/xlink" x="0px" y="0px"
	 viewBox="0 0 512 512" style="enable-background:new 0 0 512 512;" xml:space="preserve">
<path style="fill:#6DCD01;" d="M274.8,214.843h105.461c15.716,28.534,31.583,57.068,47.46,85.591c1.656,2.98,3.325,5.96,4.982,8.951
	c15.095,27.096,30.191,54.192,45.172,81.241c1.656,2.98,3.314,5.971,4.959,8.951c9.469,17.132,18.893,34.241,28.235,51.338
	c0.15,0.253,0.287,0.518,0.425,0.771c0.173,0.311,0.334,0.61,0.506,0.92c-44.297,0.403-88.018,0.403-132.016,0h-51.223
	c-109.188,0.403-219.24,0.403-327.588,0H0c9.573-17.788,19.295-35.379,29.247-53.03c1.668-2.98,3.36-5.96,5.051-8.951
	c8.146-14.382,16.453-28.833,24.956-43.468c5.753-12.656,12.656-23.011,18.409-35.667c0.403-0.702,0.806-1.404,1.197-2.106
	c1.703-2.98,3.394-5.971,5.085-8.951c16.097-28.534,31.49-57.057,47.794-85.591h107.002L274.8,214.843L274.8,214.843z"/>
<g>
	<path style="fill:#FFFFFF;" d="M432.703,309.385H78.859c1.703-2.98,3.394-5.971,5.085-8.951h343.777
		C429.378,303.414,431.046,306.393,432.703,309.385z"/>
	<path style="fill:#FFFFFF;" d="M482.833,399.577H29.247c1.668-2.98,3.36-5.96,5.051-8.951h443.576
		C479.531,393.606,481.188,396.598,482.833,399.577z"/>
</g>
<path style="fill:#8A8791;" d="M309.531,67.679v80.067h-43.51v38.576h-17.175v-38.576H202.47V67.679
	c0-4.744,3.843-8.588,8.588-8.588c2.372,0,4.517,0.961,6.072,2.515c1.555,1.55,2.517,3.7,2.517,6.072v63.216h72.71V67.679
	c0-4.744,3.843-8.588,8.588-8.588c2.372,0,4.521,0.961,6.072,2.515C308.569,63.158,309.531,65.307,309.531,67.679z"/>
<path style="fill:#787780;" d="M307.014,61.607c-1.55-1.555-3.7-2.515-6.072-2.515c-4.744,0-8.588,3.843-8.588,8.588v63.216h-26.207
	v16.85h43.382V67.679C309.531,65.307,308.569,63.158,307.014,61.607z"/>
<rect x="236.72" y="186.32" style="fill:#FF633E;" width="38.55" height="79.34"/>
<rect x="236.72" y="222.54" style="fill:#FFFFFF;" width="38.55" height="14.677"/>
<g>
</g>
<g>
</g>
<g>
</g>
<g>
</g>
<g>
</g>
<g>
</g>
<g>
</g>
<g>
</g>
<g>
</g>
<g>
</g>
<g>
</g>
<g>
</g>
<g>
</g>
<g>
</g>
<g>
</g>
</svg>
