<?xml version="1.0" encoding="iso-8859-1"?>
<!-- Generator: Adobe Illustrator 19.0.0, SVG Export Plug-In . SVG Version: 6.00 Build 0)  -->
<svg version="1.1" id="Layer_1" xmlns="http://www.w3.org/2000/svg" xmlns:xlink="http://www.w3.org/1999/xlink" x="0px" y="0px"
	 viewBox="0 0 480 480" style="enable-background:new 0 0 480 480;" xml:space="preserve">
<g>
	<path style="fill:#E5E8E8;" d="M224,352c0-70.576,57.424-128,128-128c13.032,0,25.688,2,37.704,5.72
		c0.704-4.52,1.2-9.104,1.584-13.72l-7.912-0.656C383.792,210.312,384,205.152,384,200c0-11.824-1.168-23.376-3.304-34.584
		l-51.76-12.936l-58.272,29.136l-21.752,72.504l4.032,4.704L240.8,269.32l-4.48-5.128h-72.648L120.76,314.16l14.544,58.112
		c20.144,7.592,41.936,11.752,64.704,11.752c5.152,0,10.312-0.224,15.336-0.64l0.656,7.904c4.608-0.384,9.184-0.88,13.704-1.584
		C225.952,377.56,224,364.936,224,352z"/>
	<path style="fill:#E5E8E8;" d="M240,352c0,11.872,1.848,23.448,5.448,34.544c6.304-1.528,12.488-3.368,18.536-5.504l-2.648-7.504
		c1.136-0.4,2.24-0.88,3.368-1.304l14.544-58.16l-13.296-15.512l12.144-10.408l13.968,16.296l54.472,6.808
		c13.032-17.128,23.128-36.584,29.52-57.584l7.632,2.32c1.048-3.448,1.984-6.952,2.84-10.48C375.56,241.952,363.968,240,352,240
		C290.24,240,240,290.248,240,352z"/>
	<path style="fill:#E5E8E8;" d="M78.392,138.256l56.768,28.384L192,124.008v-71.72L148.608,23.36
		c-36.04,10.504-67.56,31.712-90.808,60L78.392,138.256z"/>
	<path style="fill:#E5E8E8;" d="M251.384,23.36L208,52.288v71.72l56.84,42.632l56.768-28.384l20.584-54.896
		C318.944,55.072,287.432,33.864,251.384,23.36z"/>
	<path style="fill:#E5E8E8;" d="M71.064,152.48l-51.76,12.936C17.168,176.624,16,188.176,16,200c0,41.776,14.016,80.32,37.56,111.24
		l54.384-6.8l43.136-50.328l-21.752-72.504L71.064,152.48z"/>
</g>
<g>
	<path style="fill:#E07940;" d="M338.64,138.416l37.792,9.448c-5.216-17.616-12.992-34.136-22.912-49.128L338.64,138.416z"/>
	<path style="fill:#E07940;" d="M23.568,147.864l37.792-9.448l-14.88-39.68C36.552,113.728,28.784,130.248,23.568,147.864z"/>
	<polygon style="fill:#E07940;" points="145.264,179.144 165.952,248.192 234.048,248.192 254.736,179.144 200,138.096 	"/>
	<path style="fill:#E07940;" d="M65.92,325.824c14.544,15.488,31.728,28.456,50.84,38.192l-10.8-43.192L65.92,325.824z"/>
	<path style="fill:#E07940;" d="M229.88,18.464C220.152,16.864,210.176,16,200,16c-10.176,0-20.152,0.864-29.88,2.464L200,38.384
		L229.88,18.464z"/>
	<path style="fill:#E07940;" d="M294.04,320.824l-10.816,43.272c19.168-9.744,36.384-22.744,50.936-38.256L294.04,320.824z"/>
</g>
<g>
	<path style="fill:#334C5B;" d="M346.528,311.256l-54.472-6.808l-13.968-16.296l-12.144,10.408l13.296,15.512l-14.544,58.16
		c-1.128,0.424-2.224,0.904-3.368,1.304l2.648,7.504l2.68,7.576c59.664-21.08,106.28-69.784,124.696-130.28l-7.68-2.336l-7.632-2.32
		C369.656,274.68,359.56,294.128,346.528,311.256z M294.04,320.824l40.12,5.016c-14.56,15.512-31.776,28.512-50.936,38.256
		L294.04,320.824z"/>
	<path style="fill:#334C5B;" d="M200,384c-22.768,0-44.56-4.184-64.704-11.776l-14.544-58.064l42.92-49.968h72.648l4.48,5.128
		l12.152-10.456l-4.032-4.728l21.752-72.512l58.272-29.136l51.76,12.936c2.128,11.208,3.296,22.76,3.296,34.584
		c0,5.152-0.208,10.312-0.624,15.336l7.912,0.656l8.024,0.672C399.776,211.2,400,205.592,400,200C400,89.72,310.28,0,200,0
		S0,89.72,0,200s89.72,200,200,200c5.584,0,11.192-0.224,16.664-0.688l-0.672-8.024l-0.656-7.912
		C210.312,383.792,205.152,384,200,384z M65.92,325.824l40.04-5l10.8,43.192C97.656,354.28,80.464,341.312,65.92,325.824z
		 M107.944,304.448l-54.384,6.8C30.016,280.328,16,241.776,16,200c0-11.824,1.168-23.376,3.304-34.584l51.76-12.936l58.264,29.136
		l21.752,72.504L107.944,304.448z M200,16c10.176,0,20.152,0.864,29.88,2.464L200,38.384l-29.88-19.92
		C179.848,16.872,189.824,16,200,16z M148.608,23.36L192,52.288v71.72l-56.84,42.632l-56.768-28.384L57.808,83.36
		C81.048,55.072,112.568,33.864,148.608,23.36z M61.36,138.416l-37.792,9.448c5.216-17.616,12.984-34.136,22.912-49.128
		L61.36,138.416z M234.048,248.192h-68.096l-20.688-69.048L200,138.048l54.736,41.12L234.048,248.192z M321.608,138.256
		L264.84,166.64L208,124.008v-71.72l43.384-28.928c36.04,10.504,67.56,31.712,90.808,60L321.608,138.256z M338.64,138.416
		l14.88-39.68c9.92,14.992,17.696,31.512,22.912,49.128L338.64,138.416z"/>
	<path style="fill:#334C5B;" d="M469.352,300.816l-14.656,6.408C460.864,321.368,464,336.44,464,352
		c0,61.76-50.24,112.096-112,112.096c-29.768,0-57.408-7.904-78.2-31.904H296v-16h-40c-4.424,0-8,3.392-8,7.808v40.192h16V444.72
		c24,22.52,54.624,35.28,88,35.28c70.576,0,128-57.424,128-128C480,334.224,476.424,317,469.352,300.816z"/>
	<path style="fill:#334C5B;" d="M224,352c0,12.936,1.952,25.552,5.696,37.704c1.4,4.544,3.008,9.04,4.928,13.44l14.672-6.408
		c-1.464-3.344-2.728-6.752-3.848-10.2C241.848,375.448,240,363.88,240,352c0-61.76,50.24-112,112-112
		c11.968,0,23.552,2.048,34.528,5.608c16.32,5.304,31.232,10.584,43.672,26.584H408v16h40c4.424,0,8-3.768,8-8.192v-39.808h-16
		v19.096c-16-13.728-31.552-23.768-50.296-29.56c-12.016-3.712-24.664-5.72-37.704-5.72C281.424,224,224,281.424,224,352z"/>
</g>
<g>
</g>
<g>
</g>
<g>
</g>
<g>
</g>
<g>
</g>
<g>
</g>
<g>
</g>
<g>
</g>
<g>
</g>
<g>
</g>
<g>
</g>
<g>
</g>
<g>
</g>
<g>
</g>
<g>
</g>
</svg>
